<svg xmlns="http://www.w3.org/2000/svg" version="1.1" xmlns:xlink="http://www.w3.org/1999/xlink" xmlns:svgjs="http://svgjs.dev/svgjs" viewBox="0 0 800 800" opacity="1"><defs><linearGradient x1="50%" y1="0%" x2="50%" y2="100%" id="ccchaos-grad"><stop stop-color="hsl(230, 55%, 50%)" stop-opacity="1" offset="0%"></stop><stop stop-color="hsl(230, 55%, 70%)" stop-opacity="1" offset="100%"></stop></linearGradient></defs><g stroke-width="2" stroke="url(#ccchaos-grad)" fill="none" stroke-linecap="round"><path d="M371.26 53.6C379.45 56.29 395.39 62.47 403.13 65.77 413.37 69.9 423.23 74.02 432.72 77.97 442.22 81.12 451.37 83.96 460.21 86.51 469.11 88.24 477.77 89.83 486.24 91.38 494.89 92.48 503.47 93.86 512.05 95.66 520.98 97.51 530.06 100.1 539.38 103.52 549.21 107.4 559.44 112.28 570.13 118.18 581.46 124.72 593.35 132.29 605.82 140.78 618.93 149.89 632.6 159.81 646.72 170.42 661.29 181.45 676.12 193.01 691 204.96 705.89 217.14 720.44 229.56 734.34 242.13 747.6 254.76 759.71 267.46 770.33 280.17 779.6 292.85 786.92 305.52 792.02 318.15 795.29 330.73 796.11 343.28 794.38 355.81 790.83 368.3 784.91 380.79 776.76 393.26 772.22 399.49 767.23 405.73 761.83 411.96 756.25 418.19 750.37 424.42 744.22 430.64 738.06 436.86 731.82 443 725.56 449.04 719.44 455.09 713.4 461.04 707.49 466.89 696.53 478.56 686.56 489.78 677.8 500.46 670.81 511.03 665.26 520.97 661.14 530.18 658.85 539.16 657.81 547.3 657.82 554.53 660.24 564.41 668.16 578.83 672.11 583.56 676.39 591.02 670.07 605.86 662.89 615.14 657.06 623.57 650.07 633.58 642.06 645.23 633.52 658.61 624.1 673.34 613.92 689.07 603.4 705.5 592.27 721.96 580.67 737.74 568.87 752.41 556.72 765.07 544.34 775.01 531.87 782.13 519.24 785.62 506.53 785.22 493.81 781.59 481.04 774.37 468.29 764.01 461.92 758.17 455.55 751.82 449.2 745.09 442.84 738.29 436.49 731.36 430.16 724.43 423.82 717.82 417.57 711.53 411.4 705.67 405.23 700.45 399.14 695.83 393.13 691.88 381.09 686.51 369.34 684.16 357.88 684.73 346.35 688.47 335.07 694.3 324.02 701.53 312.87 710.15 301.92 718.68 291.16 726.36 280.27 733.32 269.54 738.23 258.98 740.71 248.28 741.18 237.73 738.81 227.35 733.72 216.85 726.49 206.52 716.87 196.42 705.27 186.24 692.23 176.32 677.89 166.7 662.71 157.09 647.02 147.84 631.11 139 615.29 130.27 599.68 122.01 584.52 114.29 569.92 106.77 555.87 99.82 542.46 93.51 529.66 87.44 517.44 82.02 505.72 77.29 494.42 72.8 483.53 68.98 472.9 65.86 462.4 62.94 452.15 60.68 441.88 59.1 431.54 57.65 421.29 56.84 410.85 56.67 400.21 56.66 392.2 57.43 375.88 58.2 367.56 59.12 359.21 61.63 342.56 63.21 334.29 65.34 323.29 67.95 312.42 71 301.75 73.9 291.17 77.2 280.85 80.87 270.9 84.32 261.09 88.1 251.7 92.17 242.82 96 234.13 100.11 225.99 104.49 218.45 108.63 211.1 113.05 204.33 117.76 198.18 122.29 192.1 127.14 186.53 132.33 181.44 137.43 176.22 142.93 171.3 148.82 166.6 154.71 161.51 161.05 156.43 167.84 151.28 174.71 145.49 182.05 139.49 189.84 133.23 197.77 126.26 206.15 119.05 214.94 111.65 223.89 103.73 233.23 95.83 242.91 88.11 252.74 80.33 262.87 73.07 273.25 66.56 283.73 60.53 294.43 55.57 305.25 51.87 316.15 49.02 327.15 47.57 338.17 47.55 346.46 48.17 363.01 51.25 371.25 53.6" stroke-dasharray="0 0" transform="rotate(0, 400, 400)" opacity="0.05"></path><path d="M366.14 71.25C376.41 74.84 386.42 79.03 396.17 83.59 405.92 87.82 415.41 92.05 424.65 96.13 433.92 99.47 442.97 102.51 451.84 105.26 460.8 107.2 469.64 108.95 478.42 110.58 487.4 111.69 496.41 112.96 505.52 114.52 514.96 115.97 524.61 118.01 534.54 120.72 544.92 123.73 555.68 127.61 566.85 132.38 578.55 137.69 590.7 143.95 603.28 151.1 616.34 158.83 629.77 167.39 643.45 176.68 657.39 186.44 671.37 196.81 685.21 207.66 698.88 218.82 712.05 230.33 724.46 242.09 736.16 254.01 746.67 266.09 755.71 278.23 763.49 290.44 769.45 302.68 773.36 314.88 775.66 327.1 775.77 339.27 773.63 351.36 769.93 363.46 764.14 375.49 756.41 387.39 747.66 399.31 737.48 411.11 726.17 422.74 714.8 434.37 703.28 445.53 692.01 456.18 681.64 466.79 672.05 476.84 663.45 486.27 656.35 495.6 650.45 504.25 645.78 512.15 642.71 519.88 640.73 526.83 639.72 532.94 640.48 541.47 645.39 554.55 648.29 559.56 651.14 564.58 653.07 575.52 651.49 582.74 649.66 589.04 646.72 596.38 642.7 604.95 638.17 615.05 632.59 626.48 626.03 639.16 619.03 653.09 611.15 667.88 602.48 683.16 593.49 698.64 583.84 713.7 573.65 727.74 563.25 740.45 552.4 751.07 541.21 759.02 529.92 764.37 518.37 766.43 506.62 765.01 494.84 760.86 482.92 753.6 470.91 743.66 458.89 732.39 446.8 719.81 434.68 706.78 422.55 694.85 410.66 684.36 399.02 675.91 387.36 670.3 375.92 667.3 364.7 666.85 353.43 669.28 342.36 673.67 331.48 679.49 320.52 686.82 309.73 694.38 299.1 701.52 288.38 708.42 277.79 713.82 267.37 717.34 256.85 719.36 246.47 719.01 236.27 716.27 226 711.68 215.92 704.82 206.06 695.97 196.18 685.64 186.57 673.81 177.26 660.84 168 647.1 159.11 632.76 150.63 618.13 142.28 603.36 134.41 588.67 127.05 574.25 119.91 560.09 113.33 546.34 107.36 533.07 101.64 520.18 96.55 507.76 92.12 495.77 87.94 484.11 84.41 472.79 81.57 461.74 78.94 450.92 76.95 440.25 75.63 429.69 74.46 419.24 73.91 408.79 73.99 398.34 74.15 387.92 74.9 377.44 76.25 366.9 77.59 356.37 79.46 346.03 81.8 335.91 84.05 325.8 86.73 315.95 89.81 306.41 92.73 296.92 96 287.78 99.59 279.05 102.95 270.4 106.61 262.21 110.53 254.52 114.2 246.93 118.12 239.84 122.28 233.29 126.19 226.8 130.37 220.79 134.79 215.27 139.02 209.67 143.55 204.45 148.38 199.54 153.08 194.37 158.13 189.36 163.54 184.43 168.91 179.03 174.69 173.54 180.85 167.92 187.06 161.66 193.69 155.17 200.73 148.44 207.86 141.09 215.41 133.56 223.34 125.93 231.39 117.92 239.81 110.02 248.57 102.39 257.43 94.83 266.6 87.86 276.03 81.69 285.54 76.05 295.28 71.5 305.18 68.18 315.14 65.69 325.24 64.55 335.42 64.78 345.62 65.77 355.87 67.97 366.13 71.25" stroke-dasharray="0 0" transform="rotate(0.16666666666666666, 400, 400)" opacity="0.10"></path><path d="M363.68 88.91C373.31 92.54 382.8 96.75 392.12 101.32 401.45 105.61 410.64 109.93 419.69 114.13 428.78 117.64 437.78 120.9 446.69 123.86 455.72 126.05 464.74 128.01 473.78 129.81 483.02 131.03 492.37 132.31 501.88 133.75 511.67 134.98 521.72 136.62 532.03 138.79 542.72 141.1 553.75 144.13 565.12 147.92 576.87 152.11 588.98 157.14 601.37 163 614.07 169.35 626.98 176.51 639.96 184.4 653.03 192.75 665.97 201.75 678.61 211.28 690.96 221.17 702.69 231.49 713.59 242.14 723.74 253.02 732.72 264.13 740.28 275.38 746.68 286.77 751.39 298.23 754.26 309.69 755.72 321.23 755.24 332.73 752.77 344.14 749 355.59 743.39 366.93 736.1 378.1 727.95 389.3 718.54 400.31 708.12 411.08 697.64 421.85 686.98 432.09 676.47 441.77 666.71 451.42 657.55 460.47 649.18 468.89 642.07 477.25 635.94 484.94 630.84 491.94 625.74 501.99 621.67 518.71 621.92 525.61 623.63 532.26 627.37 545.01 628.47 551.98 629 557.53 628.79 563.66 627.76 570.54 626.47 578.56 624.25 587.57 621.1 597.63 617.59 608.9 613.14 621.17 607.79 634.31 602.08 648.23 595.53 662.56 588.22 676.95 580.62 691.13 572.34 704.57 563.47 716.75 554.41 727.49 544.84 736.13 534.85 742.23 524.75 745.99 514.29 746.79 503.56 744.56 492.77 740.01 481.76 732.81 470.55 723.34 459.34 712.81 447.97 701.17 436.47 689.13 424.97 678.05 413.62 668.16 402.43 659.97 391.23 654.22 380.18 650.68 369.29 649.36 358.38 650.6 347.6 653.64 336.97 658.08 326.29 664.08 315.74 670.54 305.33 676.91 294.86 683.41 284.52 688.9 274.32 693.01 264.08 696.1 253.97 697.27 244.05 696.44 234.1 694.1 224.34 689.71 214.81 683.44 205.31 675.78 196.08 666.55 187.16 656.02 178.33 644.58 169.86 632.27 161.8 619.37 153.9 606.07 146.46 592.54 139.53 578.98 132.82 565.41 126.65 552.02 121.07 538.9 115.75 525.98 111.03 513.39 106.94 501.17 103.11 489.17 99.91 477.52 97.36 466.18 95.04 455.02 93.34 444.11 92.28 433.43 91.38 422.85 91.08 412.42 91.4 402.14 91.8 391.9 92.77 381.75 94.3 371.71 95.83 361.67 97.85 351.96 100.3 342.6 102.66 333.24 105.41 324.23 108.52 315.61 111.45 306.99 114.71 298.79 118.24 291.02 121.55 283.28 125.12 275.98 128.92 269.15 132.47 262.32 136.24 255.95 140.23 250.02 143.97 244.03 147.94 238.42 152.14 233.16 156.13 227.72 160.39 222.51 164.91 217.49 169.28 212.12 173.96 206.8 178.96 201.46 183.88 195.61 189.16 189.63 194.79 183.48 200.41 176.74 206.42 169.8 212.8 162.66 219.22 155.02 226.02 147.27 233.18 139.52 240.41 131.53 248 123.75 255.92 116.34 263.9 109.1 272.19 102.51 280.75 96.75 289.37 91.56 298.23 87.45 307.29 84.54 316.39 82.44 325.66 81.61 335.08 82.07 344.5 83.25 354.05 85.56 363.68 88.9" stroke-dasharray="0 0" transform="rotate(0.3333333333333333, 400, 400)" opacity="0.16"></path><path d="M364.08 106.56C373.15 110.21 382.17 114.41 391.13 118.97 400.09 123.28 409.02 127.65 417.9 131.95 426.83 135.63 435.76 139.08 444.7 142.26 453.75 144.72 462.87 146.93 472.08 148.96 481.47 150.38 491.02 151.77 500.74 153.23 510.71 154.38 520.92 155.81 531.37 157.61 542.11 159.42 553.13 161.79 564.4 164.77 575.93 168.01 587.7 171.97 599.62 176.66 611.7 181.73 623.84 187.55 635.91 194.06 647.93 200.97 659.69 208.53 671.02 216.65 681.98 225.12 692.26 234.07 701.66 243.41 710.33 253 717.85 262.9 724.04 273 729.19 283.28 732.8 293.69 734.75 304.16 735.51 314.74 734.54 325.32 731.85 335.83 728.06 346.41 722.69 356.88 715.84 367.2 708.3 377.54 699.63 387.69 690.06 397.59 680.44 407.49 670.62 416.87 660.87 425.73 651.74 434.55 643.04 442.83 634.96 450.53 627.93 458.2 621.68 465.3 616.28 471.84 612.05 478.38 608.64 484.39 605.96 489.92 603.82 498.15 602.98 513.48 603.48 521.14 604.25 526.76 604.77 532.64 604.95 538.92 605.22 545.99 604.94 553.67 604.03 562.09 602.99 571.46 601.21 581.65 598.66 592.66 595.86 604.53 592.25 617.07 587.85 630.11 583.18 643.51 577.74 656.94 571.58 670.08 565.18 682.72 558.12 694.38 550.45 704.65 542.61 713.46 534.23 720.24 525.38 724.66 516.43 727.01 507.06 726.76 497.34 723.88 487.57 719.08 477.49 712.03 467.15 703.07 456.79 693.29 446.2 682.56 435.4 671.47 424.6 661.22 413.87 651.94 403.22 644.07 392.57 638.26 382 634.3 371.54 632.24 361.06 632.42 350.68 634.24 340.4 637.37 330.1 642.04 319.9 647.31 309.82 652.75 299.71 658.58 289.71 663.82 279.85 668.09 269.98 671.77 260.26 673.98 250.7 674.58 241.17 674.02 231.83 671.71 222.73 667.71 213.7 662.5 204.93 655.76 196.48 647.69 188.15 638.68 180.17 628.65 172.6 617.82 165.21 606.44 158.26 594.58 151.81 582.42 145.58 570.07 139.87 557.64 134.73 545.28 129.84 532.93 125.52 520.75 121.82 508.82 118.36 497 115.51 485.44 113.28 474.18 111.26 463.03 109.85 452.15 109.06 441.54 108.42 431.01 108.37 420.72 108.9 410.66 109.51 400.63 110.66 390.8 112.36 381.19 114.04 371.57 116.18 362.38 118.72 353.61 121.17 344.82 123.97 336.45 127.1 328.51 130.05 320.54 133.3 313 136.79 305.89 140.06 298.74 143.56 292.01 147.28 285.69 150.74 279.3 154.41 273.28 158.27 267.61 161.88 261.8 165.7 256.26 169.72 250.95 173.53 245.38 177.57 239.95 181.84 234.59 185.95 228.84 190.33 223.07 194.99 217.21 199.54 210.88 204.41 204.39 209.59 197.73 214.72 190.58 220.2 183.27 226.01 175.83 231.81 168.03 237.97 160.21 244.47 152.48 250.98 144.64 257.84 137.11 265.02 130.03 272.22 123.2 279.73 117.07 287.52 111.79 295.34 107.1 303.42 103.47 311.74 100.98 320.07 99.26 328.61 98.74 337.35 99.43 346.08 100.78 355 103.19 364.07 106.56" stroke-dasharray="0 0" transform="rotate(0.5, 400, 400)" opacity="0.21"></path><path d="M367.3 124.22C375.87 127.85 384.48 132.01 393.09 136.51 401.72 140.83 410.39 145.22 419.09 149.58 427.84 153.4 436.66 157.03 445.55 160.42 454.54 163.15 463.66 165.64 472.9 167.92 482.28 169.61 491.84 171.22 501.58 172.81 511.51 174.02 521.65 175.39 531.98 177.01 542.52 178.51 553.26 180.43 564.15 182.82 575.21 185.33 586.38 188.43 597.59 192.13 608.83 196.1 620.01 200.71 631 205.96 641.84 211.52 652.32 217.69 662.29 224.42 671.85 231.45 680.69 238.97 688.64 246.92 695.91 255.11 702.09 263.65 707.04 272.46 711.06 281.45 713.71 290.63 714.88 299.94 715.04 309.36 713.71 318.85 710.87 328.33 707.13 337.87 702.02 347.37 695.64 356.75 688.69 366.16 680.76 375.43 672.01 384.5 663.22 393.56 654.21 402.19 645.21 410.37 636.71 418.54 628.51 426.26 620.79 433.52 613.91 440.78 607.65 447.61 602.06 454.04 597.47 460.52 593.54 466.66 590.24 472.52 587.87 478.52 586 484.36 584.53 490.11 583.79 496.17 583.26 502.31 582.82 508.62 582.83 515.44 582.72 522.62 582.39 530.24 582.26 538.54 581.73 547.42 580.73 556.92 579.72 567.14 578.12 577.97 575.9 589.36 573.55 601.28 570.52 613.54 566.81 625.96 562.92 638.42 558.34 650.61 553.11 662.23 547.7 673.17 541.67 683 535.04 691.37 528.28 698.35 520.98 703.42 513.18 706.35 505.29 707.49 496.95 706.38 488.22 703.01 479.44 698.08 470.3 691.27 460.83 682.86 451.35 673.82 441.58 663.98 431.55 653.82 421.51 644.38 411.46 635.71 401.44 628.19 391.42 622.4 381.43 618.14 371.49 615.47 361.56 614.75 351.67 615.45 341.86 617.37 332.04 620.75 322.3 624.8 312.66 629.19 303.02 634.18 293.48 638.86 284.08 642.96 274.69 646.8 265.44 649.57 256.38 651.11 247.36 651.85 238.54 651.15 229.96 649.01 221.47 645.89 213.25 641.38 205.35 635.59 197.58 628.94 190.17 621.21 183.15 612.58 176.32 603.35 169.92 593.46 163.99 583.09 158.28 572.38 153.08 561.4 148.41 550.28 143.98 539.04 140.1 527.79 136.8 516.63 133.73 505.47 131.24 494.47 129.34 483.67 127.64 472.92 126.52 462.39 125.98 452.12 125.6 441.89 125.76 431.9 126.48 422.16 127.28 412.46 128.59 402.98 130.41 393.77 132.22 384.55 134.46 375.78 137.06 367.45 139.57 359.11 142.41 351.19 145.54 343.69 148.51 336.15 151.74 329.01 155.2 322.25 158.45 315.43 161.91 308.97 165.55 302.84 168.96 296.6 172.55 290.64 176.31 284.93 179.84 279.03 183.54 273.3 187.43 267.71 191.11 261.84 194.98 256.01 199.07 250.18 202.98 243.98 207.12 237.71 211.51 231.34 215.78 224.55 220.32 217.61 225.13 210.55 229.87 203.11 234.91 195.56 240.25 187.98 245.55 180.16 251.17 172.42 257.11 164.87 263.03 157.33 269.26 150.18 275.81 143.53 282.35 137.21 289.19 131.61 296.32 126.86 303.44 122.71 310.85 119.57 318.51 117.52 326.17 116.18 334.08 115.96 342.21 116.86 350.35 118.36 358.71 120.84 367.29 124.21" stroke-dasharray="0 0" transform="rotate(0.6666666666666666, 400, 400)" opacity="0.26"></path><path d="M373.08 141.87C381.21 145.46 389.42 149.54 397.7 153.97 406 158.24 414.38 162.63 422.85 167 431.37 170.93 440 174.71 448.74 178.29 457.56 181.27 466.53 184.05 475.63 186.61 484.85 188.61 494.23 190.49 503.76 192.3 513.43 193.69 523.27 195.15 533.24 196.76 543.33 198.15 553.55 199.83 563.83 201.85 574.18 203.86 584.55 206.33 594.84 209.29 605.09 212.38 615.17 216.01 624.97 220.19 634.55 224.58 643.7 229.52 652.31 234.98 660.48 240.66 667.94 246.83 674.54 253.43 680.51 260.23 685.47 267.41 689.3 274.9 692.34 282.54 694.15 290.44 694.68 298.52 694.37 306.71 692.76 315.03 689.85 323.42 686.22 331.87 681.41 340.34 675.5 348.79 669.14 357.25 661.91 365.66 653.96 373.96 645.97 382.26 637.75 390.25 629.49 397.91 621.62 405.57 613.96 412.91 606.63 419.95 599.98 427.02 593.81 433.81 588.15 440.37 583.31 447.01 579.01 453.49 575.23 459.86 572.24 466.41 569.68 472.95 567.49 479.55 565.95 486.47 564.63 493.58 563.45 500.94 562.71 508.75 561.94 516.93 561.06 525.53 560.42 534.65 559.51 544.24 558.27 554.3 557.1 564.82 555.49 575.74 553.39 586.96 551.25 598.4 548.56 609.92 545.3 621.31 541.94 632.5 538 643.19 533.48 653.14 528.84 662.3 523.63 670.3 517.88 676.87 512.02 682.15 505.64 685.69 498.78 687.34 491.84 687.48 484.46 685.68 476.65 681.98 468.8 677.05 460.57 670.54 451.98 662.7 443.38 654.41 434.44 645.44 425.21 636.17 415.98 627.51 406.68 619.47 397.36 612.34 388.05 606.64 378.71 602.18 369.39 599.03 360.09 597.55 350.8 597.29 341.56 598.11 332.34 600.27 323.16 603.13 314.08 606.42 305.02 610.41 296.05 614.35 287.2 617.97 278.4 621.61 269.74 624.52 261.26 626.55 252.85 628.09 244.64 628.51 236.67 627.76 228.8 626.29 221.21 623.62 213.93 619.8 206.79 615.25 200 609.67 193.59 603.17 187.36 596.09 181.55 588.26 176.19 579.83 171.04 571.01 166.36 561.76 162.2 552.21 158.25 542.45 154.83 532.53 151.95 522.53 149.28 512.45 147.15 502.39 145.58 492.42 144.2 482.43 143.35 472.57 143.06 462.89 142.9 453.23 143.27 443.74 144.15 434.48 145.11 425.23 146.55 416.18 148.46 407.37 150.37 398.56 152.67 390.17 155.31 382.19 157.86 374.19 160.72 366.58 163.85 359.34 166.82 352.05 170.03 345.1 173.45 338.48 176.68 331.77 180.1 325.34 183.69 319.17 187.05 312.86 190.59 306.75 194.28 300.8 197.75 294.65 201.38 288.6 205.17 282.61 208.75 276.34 212.51 270.07 216.46 263.76 220.22 257.12 224.2 250.41 228.39 243.6 232.43 236.46 236.72 229.22 241.25 221.91 245.68 214.33 250.38 206.74 255.35 199.19 260.25 191.53 265.44 184.04 270.92 176.82 276.35 169.72 282.08 163.05 288.1 156.94 294.09 151.21 300.37 146.2 306.94 142.03 313.49 138.44 320.32 135.8 327.41 134.18 334.5 133.22 341.86 133.28 349.47 134.37 357.08 135.99 364.94 138.52 373.07 141.86" stroke-dasharray="0 0" transform="rotate(0.8333333333333334, 400, 400)" opacity="0.31"></path><path d="M380.98 159.52C388.69 163.04 396.51 167.02 404.43 171.33 412.37 175.53 420.43 179.86 428.6 184.22 436.81 188.2 445.15 192.09 453.61 195.83 462.13 199.04 470.8 202.08 479.59 204.93 488.46 207.25 497.47 209.44 506.59 211.53 515.8 213.19 525.11 214.86 534.5 216.59 543.95 218.04 553.43 219.68 562.91 221.54 572.38 223.3 581.78 225.38 591.02 227.84 600.16 230.32 609.05 233.23 617.6 236.59 625.9 240.06 633.73 244 641 248.4 647.86 252.94 654.01 257.93 659.36 263.33 664.15 268.87 668.02 274.8 670.88 281.05 673.07 287.43 674.19 294.1 674.19 301.01 673.51 307.99 671.72 315.18 668.82 322.51 665.34 329.88 660.85 337.37 655.42 344.92 649.64 352.49 643.09 360.1 635.9 367.72 628.68 375.34 621.23 382.78 613.7 390.04 606.47 397.31 599.35 404.42 592.47 411.36 586.12 418.35 580.12 425.22 574.5 432 569.55 438.89 565.01 445.75 560.88 452.63 557.41 459.7 554.31 466.87 551.52 474.19 549.3 481.78 547.29 489.6 545.43 497.7 544 506.14 542.59 514.91 541.13 524.01 539.94 533.46 538.58 543.24 537 553.3 535.55 563.61 533.77 574.09 531.63 584.64 529.51 595.19 526.97 605.58 523.97 615.64 520.93 625.32 517.4 634.38 513.39 642.58 509.31 649.99 504.74 656.24 499.68 661.14 494.54 664.91 488.94 667.12 482.88 667.69 476.77 667.02 470.22 664.72 463.27 660.84 456.27 655.99 448.89 649.85 441.16 642.62 433.4 635.05 425.31 626.92 416.9 618.51 408.49 610.62 399.98 603.2 391.41 596.5 382.85 590.96 374.25 586.41 365.63 582.91 357.04 580.81 348.44 579.73 339.86 579.59 331.32 580.64 322.82 582.36 314.39 584.56 306.01 587.5 297.7 590.54 289.52 593.47 281.4 596.63 273.42 599.33 265.61 601.44 257.89 603.33 250.37 604.39 243.09 604.55 235.92 604.24 229.01 602.95 222.4 600.68 215.95 597.87 209.82 594.11 204.06 589.5 198.47 584.39 193.28 578.52 188.52 571.99 183.95 565.09 179.82 557.67 176.17 549.82 172.73 541.74 169.76 533.35 167.3 524.76 165.04 516.04 163.27 507.2 162.02 498.31 160.94 489.38 160.37 480.45 160.3 471.59 160.35 462.72 160.89 453.93 161.91 445.28 163 436.63 164.53 428.12 166.52 419.76 168.49 411.4 170.82 403.39 173.47 395.71 176.04 388.01 178.89 380.62 181.99 373.53 184.96 366.4 188.14 359.52 191.52 352.89 194.72 346.17 198.09 339.65 201.63 333.31 204.97 326.83 208.46 320.47 212.09 314.21 215.51 307.76 219.09 301.35 222.81 294.96 226.33 288.33 230.02 281.67 233.86 274.97 237.53 268.02 241.38 260.99 245.42 253.91 249.32 246.6 253.42 239.24 257.74 231.88 261.94 224.37 266.38 216.92 271.06 209.61 275.66 202.29 280.51 195.21 285.62 188.47 290.67 181.93 295.99 175.86 301.58 170.37 307.13 165.28 312.96 160.91 319.06 157.34 325.13 154.32 331.47 152.18 338.09 150.99 344.69 150.38 351.56 150.7 358.71 151.95 365.85 153.68 373.27 156.22 380.97 159.52" stroke-dasharray="0 0" transform="rotate(1, 400, 400)" opacity="0.37"></path><path d="M390.38 177.18C397.66 180.59 405.07 184.43 412.59 188.6 420.13 192.68 427.8 196.92 435.58 201.22 443.4 205.21 451.34 209.16 459.39 213 467.48 216.4 475.7 219.66 484.01 222.77 492.37 225.41 500.83 227.92 509.35 230.32 517.91 232.3 526.53 234.26 535.15 236.21 543.78 237.87 552.39 239.61 560.9 241.5 569.37 243.22 577.69 245.15 585.8 247.36 593.77 249.49 601.44 251.96 608.73 254.77 615.77 257.6 622.33 260.82 628.33 264.41 633.96 268.08 638.92 272.14 643.15 276.57 648.34 283.52 653.59 299.25 653.47 307.91 652.51 313.83 650.62 320 647.79 326.38 644.5 332.78 640.36 339.37 635.41 346.12 630.19 352.88 624.31 359.78 617.85 366.8 611.37 373.82 604.66 380.8 597.83 387.73 591.25 394.67 584.7 401.58 578.29 408.47 572.3 415.4 566.54 422.34 561.06 429.31 556.11 436.37 551.46 443.52 547.12 450.76 543.33 458.16 539.82 465.73 536.57 473.47 533.8 481.42 531.23 489.59 528.79 498 526.75 506.63 524.75 515.51 522.75 524.6 521.02 533.89 519.2 543.34 517.23 552.91 515.42 562.53 513.39 572.15 511.09 581.63 508.87 590.95 506.31 599.96 503.41 608.49 500.52 616.56 497.24 623.93 493.57 630.42 487.8 638.47 474.15 647.21 466.27 647.46 460.84 646.18 455.02 643.54 448.82 639.6 442.6 634.93 436.01 629.21 429.07 622.59 422.12 615.76 414.84 608.43 407.25 600.86 399.67 593.72 391.96 586.92 384.19 580.66 376.42 575.35 368.6 570.79 360.75 567.07 352.92 564.5 345.08 562.75 337.25 561.79 329.47 561.87 321.72 562.56 314.03 563.71 306.39 565.59 298.84 567.67 291.41 569.79 284.04 572.25 276.81 574.48 269.75 576.34 262.79 578.18 256.01 579.46 249.47 580.08 243.04 580.45 236.87 580.06 230.99 578.89 225.24 577.35 219.81 575.02 214.73 571.92 209.81 568.45 205.25 564.27 201.1 559.45 197.12 554.31 193.55 548.6 190.42 542.42 187.47 536.02 184.96 529.22 182.92 522.11 181.05 514.86 179.63 507.37 178.69 499.72 177.9 492 177.57 484.17 177.7 476.29 177.94 468.38 178.63 460.44 179.76 452.53 180.95 444.61 182.55 436.72 184.57 428.89 186.58 421.06 188.92 413.45 191.55 406.09 194.11 398.71 196.93 391.54 199.98 384.58 202.91 377.57 206.04 370.74 209.36 364.07 212.52 357.32 215.85 350.7 219.33 344.18 222.63 337.54 226.08 330.96 229.65 324.43 233.05 317.75 236.58 311.07 240.24 304.39 243.72 297.53 247.35 290.64 251.11 283.72 254.72 276.63 258.49 269.5 262.41 262.37 266.2 255.1 270.17 247.85 274.33 240.66 278.37 233.43 282.62 226.34 287.08 219.44 291.45 212.63 296.04 206.12 300.87 199.99 305.62 194.11 310.62 188.73 315.87 183.93 321.07 179.53 326.52 175.81 332.22 172.85 337.9 170.4 343.83 168.75 350.03 167.96 356.21 167.68 362.66 168.23 369.38 169.62 376.09 171.42 383.09 173.95 390.37 177.17" stroke-dasharray="0 0" transform="rotate(1.1666666666666667, 400, 400)" opacity="0.42"></path><path d="M400.53 194.83C407.37 198.11 414.34 201.79 421.41 205.78 428.5 209.71 435.7 213.81 443 218 450.32 221.95 457.75 225.9 465.26 229.78 472.8 233.32 480.43 236.75 488.11 240.06 495.82 242.98 503.57 245.78 511.35 248.49 519.13 250.82 526.9 253.09 534.63 255.34 542.33 257.28 549.94 259.26 557.41 261.31 564.8 263.15 572 265.13 578.95 267.29 585.73 269.32 592.2 271.59 598.27 274.12 606.79 277.98 620.76 287.23 625.95 292.66 629.83 298.46 633.18 311.7 632.54 319.1 631.41 324.15 629.48 329.47 626.77 335.05 623.71 340.64 619.93 346.47 615.47 352.53 610.79 358.59 605.55 364.87 599.8 371.36 594.03 377.85 588.03 384.41 581.9 391.02 575.95 397.64 569.98 404.33 564.08 411.09 558.5 417.89 553.06 424.79 547.8 431.79 542.95 438.86 538.31 446.07 533.9 453.42 529.92 460.87 526.15 468.5 522.58 476.29 519.41 484.21 516.4 492.31 513.51 500.57 510.96 508.94 508.47 517.45 506 526.06 503.78 534.73 501.52 543.42 499.17 552.07 497 560.65 494.67 569.07 492.16 577.22 489.74 585.11 487.09 592.59 484.18 599.51 479.73 608.82 469.3 622.38 463.26 626.14 456.85 627.59 442.29 623.6 434.16 618.31 428.6 613.9 422.72 608.63 416.53 602.65 410.33 596.52 403.83 589.98 397.04 583.21 390.25 576.79 383.36 570.61 376.39 564.83 369.43 559.79 362.41 555.33 355.36 551.5 348.34 548.59 341.3 546.33 334.28 544.71 327.3 543.97 320.36 543.74 313.47 543.95 306.65 544.83 299.9 545.95 293.27 547.19 286.71 548.84 280.28 550.4 274.02 551.77 264.86 553.84 247.74 555.75 239.9 555.26 232.52 553.84 219.56 547.49 214.05 542.62 209.15 536.82 201.52 522.43 198.85 514.07 197.35 508.25 196.27 502.11 195.61 495.71 195.08 489.24 194.97 482.57 195.28 475.73 195.68 468.86 196.49 461.85 197.7 454.76 198.96 447.66 200.6 440.48 202.62 433.25 204.64 426.01 206.95 418.9 209.53 411.9 212.05 404.9 214.82 398.01 217.79 391.23 220.67 384.42 223.73 377.7 226.97 371.06 230.08 364.36 233.34 357.71 236.74 351.12 240 344.44 243.39 337.77 246.9 331.12 250.25 324.37 253.73 317.6 257.33 310.83 260.78 303.95 264.35 297.05 268.05 290.15 271.61 283.15 275.31 276.17 279.15 269.23 282.86 262.24 286.73 255.33 290.76 248.55 294.68 241.8 298.79 235.25 303.07 228.95 307.26 222.8 311.66 216.98 316.25 211.58 320.78 206.44 325.52 201.8 330.48 197.73 337.96 192.5 354.02 186.12 362.63 185.1 368.43 185.12 374.49 185.88 380.8 187.38 387.11 189.22 393.68 191.71 400.52 194.82" stroke-dasharray="0 0" transform="rotate(1.3333333333333333, 400, 400)" opacity="0.47"></path><path d="M410.64 212.48C417.01 215.6 423.49 219.09 430.05 222.86 436.61 226.6 443.27 230.52 450 234.55 456.75 238.4 463.56 242.29 470.43 246.16 477.3 249.75 484.23 253.28 491.17 256.74 505.05 262.66 518.92 268.28 532.46 273.67 545.8 277.92 558.54 282.31 570.29 287.03 581.41 291.11 591.12 295.94 598.97 301.64 607.96 310.42 612.46 327.3 611.45 333.76 609.28 340.5 601.28 355.34 595.59 363.43 591.45 368.9 586.82 374.64 581.74 380.64 576.65 386.65 571.34 392.78 565.89 399.03 560.56 405.29 555.19 411.67 549.82 418.18 544.69 424.72 539.62 431.39 534.66 438.19 530.01 445.04 525.5 452.03 521.13 459.16 513.41 473.58 506.23 488.58 499.53 503.91 493.95 519.33 488.5 534.81 482.97 549.82 478.09 564.21 472.73 577.35 466.72 588.47 460.95 597.79 454.24 604.17 446.53 607 440.62 607.24 427.4 602.15 420.1 597 415.12 592.91 409.88 588.13 404.37 582.78 398.85 577.34 393.08 571.56 387.06 565.55 381.04 559.83 374.93 554.27 368.76 548.99 362.6 544.28 356.39 539.98 350.16 536.16 343.96 533.05 337.75 530.43 331.56 528.31 325.41 526.91 319.29 525.92 313.25 525.31 301.31 525.83 289.73 527.03 278.78 528.24 268.14 530.3 258.25 531.28 249.35 530.76 240.9 529.94 233.54 527.15 227.49 522.38 221.96 517.01 217.79 509.77 215.12 500.91 213.58 493.87 212.55 478.08 213.05 469.48 213.58 463.64 214.47 457.58 215.74 451.34 217.04 445.1 218.68 438.68 220.68 432.12 222.66 425.56 224.92 419 227.42 412.48 229.88 405.95 232.55 399.44 235.42 392.95 238.22 386.46 241.19 379.97 244.32 373.51 247.34 367.01 250.51 360.52 253.82 354.03 260.05 340.92 266.79 327.73 273.97 314.58 280.62 301.23 287.78 287.93 295.39 274.92 302.56 262.02 310.32 249.72 318.66 238.44 326.69 227.88 335.42 218.87 344.89 211.87 351.98 207.68 367.13 202.92 375.22 202.45 380.66 202.73 386.33 203.66 392.23 205.22 398.12 207.08 404.25 209.5 410.63 212.48" stroke-dasharray="0 0" transform="rotate(1.5, 400, 400)" opacity="0.53"></path><path d="M419.91 230.14C431.64 236.08 443.65 243.16 455.81 250.88 467.99 258.11 480.3 265.48 492.54 272.75 504.73 279 516.74 285.08 528.27 290.96 539.57 295.86 550.17 300.8 559.73 305.93 568.74 310.4 576.41 315.37 582.39 320.96 587.48 326.23 590.64 332.36 591.62 339.4 591.57 346.31 589.33 354.24 584.86 363.19 579.63 372.1 572.51 382.07 563.69 393.12 554.82 404.17 545.27 415.84 535.49 427.99 526.38 440.21 517.39 452.98 508.74 466.13 501.08 479.36 493.75 492.91 486.77 506.48 480.67 519.9 474.68 533.02 468.68 545.35 463.26 556.91 457.53 567.07 451.38 575.23 445.48 581.85 438.92 585.87 431.64 586.92 424.41 586.1 416.33 582.31 407.42 575.7 398.48 568.06 388.68 558.57 378.09 547.9 367.5 538.13 356.68 528.99 345.83 521.02 335.05 515.23 324.32 510.86 313.87 507.81 303.59 506.73 293.68 506.33 284.37 506.14 275.33 506.94 266.99 507.14 259.56 506.39 252.49 505.72 246.42 503.63 241.52 500 237.02 496.08 233.74 490.58 231.78 483.59 230.2 476.34 229.91 467.76 231 458.03 232.3 448.2 234.87 437.38 238.73 425.69 242.56 414 247.34 402.05 252.87 389.98 258.15 377.91 264.08 365.67 270.52 353.38 276.57 341.04 283.11 328.61 290.05 316.26 296.57 303.92 303.55 291.75 310.94 280.01 317.96 268.57 325.48 257.85 333.51 248.22 341.25 239.36 349.61 231.99 358.58 226.47 367.37 222.14 376.88 219.93 387.09 220.01 397.24 221.28 408.18 224.69 419.9 230.13" stroke-dasharray="0 0" transform="rotate(1.6666666666666667, 400, 400)" opacity="0.58"></path><path d="M427.62 247.79C438.23 253.3 448.97 259.82 459.72 266.98 470.47 273.83 481.2 280.93 491.71 288.06 502.15 294.45 512.26 300.78 521.82 306.99 531.14 312.42 539.72 317.86 547.29 323.41 554.39 328.36 560.27 333.63 564.67 339.33 568.39 344.68 570.48 350.66 570.76 357.35 570.31 363.86 568.06 371.21 564 379.42 559.41 387.58 553.24 396.67 545.64 406.73 538 416.79 529.69 427.39 521.08 438.37 512.93 449.39 504.72 460.79 496.65 472.37 489.29 483.92 482.09 495.52 475.1 506.89 468.78 517.96 462.52 528.48 456.28 538.03 450.52 546.84 444.56 554.24 438.34 559.8 432.37 564.13 425.96 566.29 419.05 566.02 412.22 564.44 404.8 560.53 396.77 554.44 388.74 547.7 380.09 539.47 370.85 530.24 361.61 521.71 352.27 513.51 342.98 506.05 333.74 500.21 324.63 495.33 315.82 491.41 307.15 489.06 298.85 487.28 291.13 485.8 283.61 485.27 276.75 484.47 270.71 483.11 262.51 481.05 251.44 471.52 248.86 463.63 247.8 457.83 247.87 450.81 249.14 442.67 250.57 434.47 253.11 425.22 256.78 415.02 260.44 404.81 264.95 394.19 270.13 383.31 275.13 372.46 280.73 361.36 286.82 350.18 292.6 339.03 298.85 327.84 305.48 316.78 311.79 305.88 318.51 295.24 325.6 285.13 332.39 275.42 339.62 266.48 347.27 258.62 354.7 251.49 362.63 245.73 371.05 241.62 379.34 238.5 388.21 237.18 397.63 237.8 407.01 239.34 417.01 242.7 427.62 247.79" stroke-dasharray="0 0" transform="rotate(1.8333333333333335, 400, 400)" opacity="0.63"></path><path d="M433.15 265.44C442.55 270.45 451.95 276.36 461.21 282.88 470.47 289.21 479.56 295.87 488.34 302.67 497.03 308.97 505.32 315.31 513 321.62 520.48 327.35 527.22 333.13 533.03 338.96 538.47 344.31 542.84 349.88 545.95 355.72 548.57 361.25 549.84 367.22 549.65 373.68 548.96 379.98 546.81 386.9 543.22 394.47 539.27 401.99 534.03 410.23 527.58 419.23 521.11 428.22 514.02 437.56 506.56 447.11 499.43 456.66 492.1 466.37 484.77 476.05 477.93 485.63 471.11 495.03 464.38 504 458.13 512.64 451.89 520.59 445.67 527.54 439.82 533.85 433.83 538.87 427.7 542.3 421.79 544.83 415.58 545.6 409.08 544.47 402.67 542.47 395.85 538.69 388.66 533.25 381.48 527.43 373.87 520.44 365.9 512.59 357.92 505.26 349.96 498.04 342.14 491.24 334.36 485.57 326.77 480.51 319.51 476.07 312.34 472.82 305.56 469.99 299.31 467.44 290.47 464.8 276.48 458.88 271.66 454.64 268.07 449.71 265.93 435.09 267.47 425.31 268.95 418.42 271.4 410.59 274.84 401.87 278.26 393.14 282.43 383.97 287.2 374.53 291.84 365.12 297.04 355.49 302.68 345.8 308.11 336.19 313.97 326.6 320.18 317.22 326.16 308.05 332.52 299.22 339.19 290.96 345.65 283.11 352.49 276.02 359.66 269.95 366.67 264.49 374.09 260.25 381.88 257.42 389.57 255.35 397.71 254.78 406.26 255.82 414.78 257.54 423.75 260.77 433.15 265.44" stroke-dasharray="0 0" transform="rotate(2, 400, 400)" opacity="0.68"></path><path d="M436.09 283.1C444.19 287.55 452.18 292.78 459.93 298.56 467.68 304.25 475.16 310.31 482.26 316.58 489.28 322.54 495.85 328.63 501.84 334.77 507.65 340.52 512.79 346.35 517.1 352.23 521.15 357.76 524.28 363.45 526.38 369.31 528.15 374.92 528.84 380.82 528.36 387.03 527.56 393.11 525.62 399.6 522.54 406.5 519.22 413.37 514.87 420.73 509.52 428.56 504.16 436.39 498.23 444.33 491.94 452.28 485.84 460.21 479.49 468.08 473.03 475.73 466.89 483.27 460.67 490.46 454.45 497.11 448.55 503.47 442.62 509.11 436.68 513.8 431 518.03 425.24 521.13 419.39 522.95 413.71 524.16 407.86 524.01 401.85 522.42 395.91 520.3 389.75 516.85 383.37 512.16 377.02 507.28 370.42 501.47 363.62 494.94 356.83 488.78 350.16 482.56 343.7 476.53 337.27 471.26 331.07 466.3 325.23 461.71 316.73 456.19 302.17 447.15 296.38 443 291.43 439.17 285.32 429.58 284.32 423.35 284.06 419.01 284.6 413.94 286 408.12 287.47 402.29 289.76 395.71 292.89 388.41 296.01 381.1 299.78 373.45 304.08 365.59 308.28 357.77 312.99 349.8 318.09 341.84 323.06 333.98 328.42 326.21 334.1 318.71 339.62 311.41 345.48 304.49 351.6 298.15 357.59 292.15 363.89 286.86 370.45 282.46 376.91 278.55 383.68 275.65 390.72 273.92 397.7 272.74 404.99 272.77 412.57 274.08 420.12 275.89 427.98 278.9 436.09 283.1" stroke-dasharray="0 0" transform="rotate(2.1666666666666665, 400, 400)" opacity="0.74"></path><path d="M436.18 300.75C442.94 304.59 449.49 309.08 455.75 314.04 462 318.98 467.94 324.29 473.48 329.83 484.39 340.39 493.38 351.64 499.71 363.04 505.37 373.61 507.95 384.77 506.98 396.4 506.19 402.09 504.52 408 501.97 414.13 499.28 420.23 495.77 426.59 491.47 433.16 487.15 439.74 482.35 446.22 477.19 452.53 472.15 458.81 466.83 464.86 461.35 470.58 450.96 481.71 440.03 490.88 429.08 497.03 418.79 501.95 408.11 503.12 397.28 500.03 391.96 498.04 386.51 495.07 380.99 491.19 375.49 487.24 369.88 482.57 364.21 477.28 358.53 472.25 353.06 467.07 347.86 461.91 342.65 457.23 337.73 452.64 333.14 448.22 324.07 440.99 316.53 434.07 311.06 427.21 304.44 418.19 303.05 400.44 304.72 393.24 306.11 388.29 308.17 382.82 310.94 376.86 313.7 370.9 317 364.74 320.75 358.5 324.45 352.29 328.57 346.05 333.05 339.89 341.73 327.84 351.82 316.58 362.76 307.24 373.38 298.94 385.05 293.28 397.38 291.17 403.5 290.69 409.82 291.15 416.3 292.6 422.77 294.37 429.42 297.09 436.18 300.75" stroke-dasharray="0 0" transform="rotate(2.3333333333333335, 400, 400)" opacity="0.79"></path><path d="M433.43 318.4C444.18 324.84 453.92 333.16 462.21 342.49 470.36 351.56 476.82 361.4 481.14 371.45 485.06 381.1 486.64 391.16 485.58 401.34 484.08 411.36 480.03 421.79 473.42 432.3 466.77 442.8 458.58 452.35 449.65 460.43 441.09 468.26 431.9 474.2 422.58 477.66 413.64 480.47 404.38 480.48 395.14 477.5 386.06 474.01 376.76 467.93 367.6 459.63 358.44 451.96 350.24 443.66 343.28 435.47 336.38 428.5 330.83 421.5 327 414.53 323.3 408.37 321.41 401.61 321.6 394.15 321.93 386.91 324.33 378.53 328.99 369.13 333.64 359.73 340.01 350.22 347.55 341.28 354.91 332.56 363.44 324.78 372.65 318.67 381.71 313.22 391.56 309.88 401.8 309.22 411.99 309.44 422.68 312.45 433.43 318.4" stroke-dasharray="0 0" transform="rotate(2.5, 400, 400)" opacity="0.84"></path><path d="M428.06 336.06C436.02 341.03 443.03 347.41 448.82 354.62 454.52 361.78 458.89 369.63 461.67 377.72 464.26 385.66 465.17 393.89 464.23 402.05 463.09 410.15 460.15 418.3 455.37 426.1 450.56 433.89 444.54 440.57 437.85 445.86 431.32 451.02 424.19 454.61 416.87 456.37 409.74 457.85 402.34 457.41 395.02 454.97 387.79 452.37 380.52 447.99 373.54 441.98 366.57 436.31 360.5 429.92 355.51 423.33 350.53 417.34 346.67 411.11 344.12 404.84 341.63 399.01 340.5 392.85 340.9 386.47 341.36 380.23 343.36 373.51 347.05 366.5 350.72 359.48 355.71 352.82 361.59 346.89 367.4 341.08 374.1 336.19 381.31 332.66 388.46 329.45 396.17 327.82 404.07 328.06 411.96 328.74 420.09 331.37 428.06 336.06" stroke-dasharray="0 0" transform="rotate(2.6666666666666665, 400, 400)" opacity="0.89"></path><path d="M420.47 353.71C430.91 360.61 438.33 371.07 441.64 382.29 444.68 393.44 443.44 405.38 437.31 415.59 431.16 425.8 421.75 432.18 411.63 433.93 401.77 435.38 391.06 432.16 381.56 424.32 372.07 417.08 365.39 407.48 362.33 397.77 359.28 388.73 359.94 378.8 365.1 369.39 370.24 359.98 378.91 352.79 388.84 349.22 398.73 346.14 410.03 347.33 420.47 353.71" stroke-dasharray="0 0" transform="rotate(2.833333333333333, 400, 400)" opacity="0.95"></path></g></svg>